<svg width="184" height="54" viewBox="0 0 184 54" fill="none" xmlns="http://www.w3.org/2000/svg">
<g clip-path="url(#clip0_248_43)">
<path d="M29.1973 53.9474L22.8113 52.0806C22.1413 51.8907 21.7645 51.1841 21.9529 50.5091L36.2427 0.917701C36.4312 0.242701 37.1326 -0.136987 37.8026 0.0528572L44.1885 1.91965C44.8585 2.1095 45.2354 2.81614 45.047 3.49114L30.7571 53.0825C30.5582 53.7575 29.8673 54.1478 29.1973 53.9474ZM17.2629 42.1138L21.8168 37.22C22.2984 36.7033 22.267 35.8806 21.7331 35.406L12.2484 27.0001L21.7331 18.5943C22.267 18.1197 22.3088 17.297 21.8168 16.7802L17.2629 11.8865C16.7918 11.3802 15.9962 11.3486 15.4832 11.8337L0.397744 26.072C-0.136162 26.5677 -0.136162 27.422 0.397744 27.9177L15.4832 42.1665C15.9962 42.6517 16.7918 42.6306 17.2629 42.1138ZM51.5166 42.1771L66.6021 27.9282C67.136 27.4325 67.136 26.5782 66.6021 26.0825L51.5166 11.8232C51.0141 11.3486 50.2185 11.3697 49.737 11.8759L45.1831 16.7697C44.7015 17.2865 44.7329 18.1091 45.2668 18.5837L54.7515 27.0001L45.2668 35.406C44.7329 35.8806 44.691 36.7033 45.1831 37.22L49.737 42.1138C50.208 42.6306 51.0037 42.6517 51.5166 42.1771Z" fill="#0C4CF3"/>
<rect width="10.0892" height="54.2228" rx="2" transform="matrix(0.957869 0.287204 -0.283307 0.959029 36.2847 -0.437622)" fill="white"/>
</g>
<path d="M76.8848 32.469H79.5394L82.343 39.3091H82.4623L85.2659 32.469H87.9205V42.6496H85.8326V36.0232H85.7481L83.1135 42.5999H81.6918L79.0572 35.9984H78.9727V42.6496H76.8848V32.469ZM91.4486 42.6496H89.1421L92.6566 32.469H95.4304L98.9399 42.6496H96.6334L94.0832 34.7954H94.0037L91.4486 42.6496ZM91.3045 38.6479H96.7527V40.3281H91.3045V38.6479ZM98.5335 34.2436V32.469H106.895V34.2436H103.778V42.6496H101.65V34.2436H98.5335ZM110.424 32.469V42.6496H108.272V32.469H110.424ZM113.95 42.6496H111.643L115.158 32.469H117.932L121.441 42.6496H119.135L116.584 34.7954H116.505L113.95 42.6496ZM113.806 38.6479H119.254V40.3281H113.806V38.6479ZM127.957 35.3969C127.917 34.9959 127.746 34.6844 127.445 34.4623C127.143 34.2403 126.734 34.1293 126.217 34.1293C125.866 34.1293 125.569 34.179 125.327 34.2784C125.085 34.3745 124.9 34.5087 124.77 34.6811C124.645 34.8534 124.582 35.0489 124.582 35.2677C124.575 35.4499 124.613 35.609 124.696 35.7449C124.782 35.8807 124.9 35.9984 125.049 36.0978C125.198 36.1939 125.37 36.2784 125.566 36.3513C125.761 36.4209 125.97 36.4806 126.192 36.5303L127.107 36.749C127.551 36.8484 127.959 36.981 128.33 37.1467C128.701 37.3124 129.022 37.5162 129.294 37.7581C129.566 38 129.776 38.285 129.925 38.6131C130.078 38.9412 130.156 39.3174 130.159 39.7415C130.156 40.3646 129.997 40.9048 129.682 41.3621C129.37 41.8161 128.92 42.1691 128.33 42.4209C127.743 42.6695 127.036 42.7937 126.207 42.7937C125.385 42.7937 124.669 42.6678 124.06 42.4159C123.453 42.1641 122.979 41.7913 122.638 41.2975C122.3 40.8004 122.123 40.1856 122.106 39.4532H124.189C124.212 39.7946 124.31 40.0796 124.482 40.3082C124.658 40.5336 124.891 40.7043 125.183 40.8203C125.478 40.9329 125.811 40.9893 126.182 40.9893C126.547 40.9893 126.863 40.9362 127.132 40.8302C127.403 40.7241 127.614 40.5767 127.763 40.3878C127.912 40.1989 127.987 39.9818 127.987 39.7366C127.987 39.5079 127.919 39.3157 127.783 39.1599C127.65 39.0042 127.455 38.8716 127.196 38.7623C126.941 38.6529 126.628 38.5535 126.257 38.464L125.148 38.1856C124.29 37.9768 123.612 37.6504 123.115 37.2063C122.618 36.7623 122.371 36.1641 122.374 35.4118C122.371 34.7954 122.535 34.2569 122.867 33.7962C123.201 33.3356 123.66 32.976 124.244 32.7175C124.827 32.459 125.49 32.3298 126.232 32.3298C126.988 32.3298 127.647 32.459 128.21 32.7175C128.777 32.976 129.218 33.3356 129.533 33.7962C129.848 34.2569 130.01 34.7904 130.02 35.3969H127.957ZM134.847 42.6496V32.469H138.923C139.672 32.469 140.297 32.58 140.797 32.802C141.297 33.0241 141.674 33.3323 141.925 33.7266C142.177 34.1177 142.303 34.5684 142.303 35.0788C142.303 35.4764 142.224 35.8261 142.065 36.1276C141.905 36.4259 141.687 36.6711 141.408 36.8633C141.133 37.0522 140.819 37.1865 140.464 37.266V37.3654C140.852 37.382 141.215 37.4913 141.553 37.6935C141.894 37.8957 142.171 38.179 142.383 38.5435C142.595 38.9048 142.701 39.3356 142.701 39.836C142.701 40.3762 142.567 40.8584 142.298 41.2826C142.033 41.7034 141.64 42.0365 141.12 42.2817C140.6 42.527 139.959 42.6496 139.196 42.6496H134.847ZM136.999 40.8898H138.754C139.354 40.8898 139.791 40.7755 140.066 40.5468C140.341 40.3149 140.479 40.0067 140.479 39.6222C140.479 39.3406 140.411 39.092 140.275 38.8766C140.139 38.6612 139.945 38.4922 139.693 38.3696C139.445 38.2469 139.148 38.1856 138.804 38.1856H136.999V40.8898ZM136.999 36.7291H138.595C138.89 36.7291 139.152 36.6778 139.38 36.575C139.612 36.469 139.794 36.3198 139.927 36.1276C140.063 35.9354 140.131 35.7051 140.131 35.4367C140.131 35.0688 140 34.7722 139.738 34.5469C139.48 34.3215 139.112 34.2088 138.635 34.2088H136.999V36.7291ZM145.856 42.6496H143.55L147.064 32.469H149.838L153.347 42.6496H151.041L148.491 34.7954H148.411L145.856 42.6496ZM145.712 38.6479H151.16V40.3281H145.712V38.6479ZM154.463 42.6496V41.372L159.544 34.2436H154.454V32.469H162.248V33.7465L157.163 40.8749H162.258V42.6496H154.463ZM165.664 42.6496H163.358L166.872 32.469H169.646L173.156 42.6496H170.849L168.299 34.7954H168.219L165.664 42.6496ZM165.52 38.6479H170.968V40.3281H165.52V38.6479ZM182.896 32.469V42.6496H181.037L176.608 36.242H176.533V42.6496H174.381V32.469H176.27L180.664 38.8716H180.754V32.469H182.896Z" fill="white"/>
<rect x="86" y="13" width="88" height="13" rx="6.5" fill="#0C4CF3"/>
<path d="M100.747 22.5H98.9424V17.4097H100.762C101.274 17.4097 101.715 17.5116 102.084 17.7154C102.454 17.9176 102.738 18.2084 102.937 18.5878C103.137 18.9673 103.237 19.4213 103.237 19.9499C103.237 20.4801 103.137 20.9358 102.937 21.3169C102.738 21.698 102.452 21.9905 102.079 22.1943C101.708 22.3981 101.264 22.5 100.747 22.5ZM100.019 21.5779H100.702C101.02 21.5779 101.288 21.5215 101.505 21.4089C101.724 21.2945 101.888 21.1181 101.997 20.8795C102.108 20.6392 102.164 20.3293 102.164 19.9499C102.164 19.5737 102.108 19.2664 101.997 19.0278C101.888 18.7892 101.725 18.6135 101.507 18.5008C101.29 18.3882 101.023 18.3318 100.705 18.3318H100.019V21.5779ZM104.035 22.5V17.4097H107.465V18.297H105.111V19.5099H107.288V20.3973H105.111V21.6127H107.475V22.5H104.035ZM111.082 18.8737C111.062 18.6732 110.976 18.5174 110.826 18.4064C110.675 18.2954 110.47 18.2399 110.212 18.2399C110.036 18.2399 109.888 18.2647 109.767 18.3144C109.646 18.3625 109.553 18.4296 109.488 18.5157C109.425 18.6019 109.394 18.6997 109.394 18.809C109.391 18.9002 109.41 18.9797 109.451 19.0476C109.494 19.1156 109.553 19.1744 109.628 19.2241C109.702 19.2722 109.788 19.3144 109.886 19.3509C109.984 19.3857 110.088 19.4155 110.199 19.4404L110.657 19.5497C110.879 19.5994 111.082 19.6657 111.268 19.7486C111.454 19.8314 111.614 19.9333 111.75 20.0543C111.886 20.1752 111.991 20.3177 112.066 20.4818C112.142 20.6458 112.181 20.8339 112.183 21.046C112.181 21.3575 112.101 21.6276 111.944 21.8563C111.788 22.0833 111.563 22.2597 111.268 22.3857C110.975 22.5099 110.621 22.5721 110.207 22.5721C109.796 22.5721 109.438 22.5091 109.133 22.3832C108.83 22.2572 108.593 22.0708 108.422 21.8239C108.253 21.5754 108.164 21.268 108.156 20.9018H109.198C109.209 21.0725 109.258 21.215 109.344 21.3293C109.432 21.442 109.549 21.5273 109.695 21.5853C109.842 21.6417 110.009 21.6698 110.194 21.6698C110.377 21.6698 110.535 21.6433 110.669 21.5903C110.805 21.5373 110.91 21.4635 110.985 21.3691C111.059 21.2746 111.097 21.1661 111.097 21.0435C111.097 20.9292 111.063 20.8331 110.995 20.7552C110.928 20.6773 110.831 20.611 110.701 20.5563C110.574 20.5017 110.417 20.4519 110.232 20.4072L109.677 20.268C109.248 20.1636 108.909 20.0004 108.661 19.7784C108.412 19.5563 108.289 19.2573 108.29 18.8811C108.289 18.5729 108.371 18.3036 108.536 18.0733C108.704 17.843 108.933 17.6632 109.225 17.534C109.517 17.4047 109.848 17.3401 110.219 17.3401C110.597 17.3401 110.927 17.4047 111.208 17.534C111.492 17.6632 111.712 17.843 111.869 18.0733C112.027 18.3036 112.108 18.5704 112.113 18.8737H111.082ZM113.668 22.5H112.514L114.272 17.4097H115.659L117.413 22.5H116.26L114.985 18.5729H114.945L113.668 22.5ZM113.596 20.4992H116.32V21.3393H113.596V20.4992ZM118.026 22.5V17.4097H120.034C120.419 17.4097 120.747 17.4785 121.019 17.616C121.292 17.7519 121.5 17.9449 121.642 18.1951C121.787 18.4437 121.859 18.7361 121.859 19.0725C121.859 19.4105 121.786 19.7013 121.64 19.9449C121.494 20.1868 121.283 20.3724 121.006 20.5017C120.731 20.6309 120.398 20.6955 120.007 20.6955H118.662V19.8306H119.833C120.039 19.8306 120.209 19.8024 120.345 19.7461C120.481 19.6897 120.582 19.6052 120.648 19.4925C120.716 19.3799 120.75 19.2399 120.75 19.0725C120.75 18.9035 120.716 18.761 120.648 18.645C120.582 18.529 120.48 18.4412 120.343 18.3815C120.207 18.3202 120.035 18.2896 119.828 18.2896H119.102V22.5H118.026ZM120.775 20.1835L122.04 22.5H120.852L119.614 20.1835H120.775ZM122.619 22.5V17.4097H124.628C125.012 17.4097 125.34 17.4785 125.612 17.616C125.885 17.7519 126.093 17.9449 126.236 18.1951C126.38 18.4437 126.452 18.7361 126.452 19.0725C126.452 19.4105 126.379 19.7013 126.233 19.9449C126.087 20.1868 125.876 20.3724 125.599 20.5017C125.324 20.6309 124.991 20.6955 124.6 20.6955H123.256V19.8306H124.426C124.632 19.8306 124.802 19.8024 124.938 19.7461C125.074 19.6897 125.175 19.6052 125.241 19.4925C125.309 19.3799 125.343 19.2399 125.343 19.0725C125.343 18.9035 125.309 18.761 125.241 18.645C125.175 18.529 125.073 18.4412 124.936 18.3815C124.8 18.3202 124.628 18.2896 124.421 18.2896H123.696V22.5H122.619ZM125.368 20.1835L126.633 22.5H125.445L124.208 20.1835H125.368ZM131.89 19.9548C131.89 20.5099 131.785 20.9822 131.575 21.3716C131.366 21.761 131.081 22.0584 130.72 22.2639C130.36 22.4677 129.956 22.5696 129.507 22.5696C129.054 22.5696 128.648 22.4669 128.289 22.2614C127.929 22.0559 127.645 21.7585 127.436 21.3691C127.227 20.9797 127.123 20.5083 127.123 19.9548C127.123 19.3998 127.227 18.9275 127.436 18.5381C127.645 18.1487 127.929 17.8521 128.289 17.6483C128.648 17.4428 129.054 17.3401 129.507 17.3401C129.956 17.3401 130.36 17.4428 130.72 17.6483C131.081 17.8521 131.366 18.1487 131.575 18.5381C131.785 18.9275 131.89 19.3998 131.89 19.9548ZM130.799 19.9548C130.799 19.5953 130.745 19.292 130.638 19.0452C130.531 18.7983 130.381 18.611 130.188 18.4834C129.994 18.3558 129.767 18.2921 129.507 18.2921C129.246 18.2921 129.019 18.3558 128.826 18.4834C128.632 18.611 128.481 18.7983 128.373 19.0452C128.267 19.292 128.214 19.5953 128.214 19.9548C128.214 20.3144 128.267 20.6176 128.373 20.8645C128.481 21.1114 128.632 21.2987 128.826 21.4263C129.019 21.5539 129.246 21.6176 129.507 21.6176C129.767 21.6176 129.994 21.5539 130.188 21.4263C130.381 21.2987 130.531 21.1114 130.638 20.8645C130.745 20.6176 130.799 20.3144 130.799 19.9548ZM132.687 22.5V17.4097H133.764V21.6127H135.946V22.5H132.687ZM136.659 22.5V17.4097H137.735V21.6127H139.917V22.5H136.659ZM141.637 22.5H140.484L142.241 17.4097H143.628L145.383 22.5H144.229L142.954 18.5729H142.915L141.637 22.5ZM141.565 20.4992H144.289V21.3393H141.565V20.4992ZM147.8 22.5H145.995V17.4097H147.815C148.327 17.4097 148.768 17.5116 149.137 17.7154C149.507 17.9176 149.791 18.2084 149.99 18.5878C150.19 18.9673 150.29 19.4213 150.29 19.9499C150.29 20.4801 150.19 20.9358 149.99 21.3169C149.791 21.698 149.505 21.9905 149.132 22.1943C148.761 22.3981 148.317 22.5 147.8 22.5ZM147.072 21.5779H147.755C148.073 21.5779 148.341 21.5215 148.558 21.4089C148.777 21.2945 148.941 21.1181 149.05 20.8795C149.161 20.6392 149.217 20.3293 149.217 19.9499C149.217 19.5737 149.161 19.2664 149.05 19.0278C148.941 18.7892 148.778 18.6135 148.56 18.5008C148.343 18.3882 148.076 18.3318 147.758 18.3318H147.072V21.5779ZM155.765 19.9548C155.765 20.5099 155.66 20.9822 155.45 21.3716C155.241 21.761 154.956 22.0584 154.595 22.2639C154.235 22.4677 153.831 22.5696 153.382 22.5696C152.929 22.5696 152.523 22.4669 152.164 22.2614C151.804 22.0559 151.52 21.7585 151.311 21.3691C151.102 20.9797 150.998 20.5083 150.998 19.9548C150.998 19.3998 151.102 18.9275 151.311 18.5381C151.52 18.1487 151.804 17.8521 152.164 17.6483C152.523 17.4428 152.929 17.3401 153.382 17.3401C153.831 17.3401 154.235 17.4428 154.595 17.6483C154.956 17.8521 155.241 18.1487 155.45 18.5381C155.66 18.9275 155.765 19.3998 155.765 19.9548ZM154.674 19.9548C154.674 19.5953 154.62 19.292 154.513 19.0452C154.407 18.7983 154.257 18.611 154.063 18.4834C153.869 18.3558 153.642 18.2921 153.382 18.2921C153.122 18.2921 152.895 18.3558 152.701 18.4834C152.507 18.611 152.356 18.7983 152.248 19.0452C152.142 19.292 152.089 19.5953 152.089 19.9548C152.089 20.3144 152.142 20.6176 152.248 20.8645C152.356 21.1114 152.507 21.2987 152.701 21.4263C152.895 21.5539 153.122 21.6176 153.382 21.6176C153.642 21.6176 153.869 21.5539 154.063 21.4263C154.257 21.2987 154.407 21.1114 154.513 20.8645C154.62 20.6176 154.674 20.3144 154.674 19.9548ZM156.562 22.5V17.4097H158.571C158.955 17.4097 159.283 17.4785 159.555 17.616C159.828 17.7519 160.036 17.9449 160.179 18.1951C160.323 18.4437 160.395 18.7361 160.395 19.0725C160.395 19.4105 160.322 19.7013 160.176 19.9449C160.031 20.1868 159.819 20.3724 159.543 20.5017C159.268 20.6309 158.934 20.6955 158.543 20.6955H157.199V19.8306H158.369C158.575 19.8306 158.746 19.8024 158.881 19.7461C159.017 19.6897 159.118 19.6052 159.185 19.4925C159.253 19.3799 159.287 19.2399 159.287 19.0725C159.287 18.9035 159.253 18.761 159.185 18.645C159.118 18.529 159.017 18.4412 158.879 18.3815C158.743 18.3202 158.572 18.2896 158.364 18.2896H157.639V22.5H156.562ZM159.311 20.1835L160.577 22.5H159.389L158.151 20.1835H159.311Z" fill="white"/>
<defs>
<clipPath id="clip0_248_43">
<rect width="67" height="54" fill="white"/>
</clipPath>
</defs>
</svg>
