<svg width="36" height="33" viewBox="0 0 36 33" fill="none" xmlns="http://www.w3.org/2000/svg">
<g clip-path="url(#clip0_252_50)">
<path d="M5.29155 29.4223L2.46387 0.348511H33.5364L30.7059 29.4179L17.9813 32.6516L5.29155 29.4223Z" fill="#1572B6"/>
<path d="M18 30.18L28.2822 27.5669L30.7013 2.72559H18V30.18Z" fill="#33A9DC"/>
<path d="M18 13.259H23.1474L23.5029 9.60761H18V6.04181H27.7543L27.6609 6.99855L26.7047 16.8248H18V13.259Z" fill="white"/>
<path d="M18.0238 22.5197L18.0066 22.5243L13.6745 21.4521L13.3975 18.6082H9.49316L10.0379 24.2071L18.006 26.2342L18.0238 26.2296V22.5197Z" fill="#EBEBEB"/>
<path d="M22.8169 16.6741L22.3483 21.4493L18.0098 22.5228V26.2327L25.9843 24.2068L26.0428 23.6043L26.7195 16.6741H22.8169Z" fill="white"/>
<path d="M18.0132 6.04181V9.60761H8.61723L8.53932 8.80633L8.36214 6.99855L8.26904 6.04181H18.0132ZM18 13.2595V16.8253H13.7225L13.6446 16.0241L13.4671 14.2163L13.3743 13.2595H18Z" fill="#EBEBEB"/>
</g>
<defs>
<clipPath id="clip0_252_50">
<rect width="36" height="33" fill="white"/>
</clipPath>
</defs>
</svg>
