<svg width="38" height="39" viewBox="0 0 38 39" fill="none" xmlns="http://www.w3.org/2000/svg">
<g clip-path="url(#clip0_285_10)">
<path d="M37.0312 17.787L20.6686 0.994474C19.7269 0.0273955 18.1986 0.0273955 17.2554 0.994474L13.858 4.48193L18.168 8.90538C19.17 8.55834 20.3183 8.79112 21.1166 9.61043C21.9191 10.4349 22.1441 11.6235 21.7976 12.6552L25.9515 16.9187C26.9564 16.5631 28.1163 16.7928 28.9185 17.6179C30.0407 18.7687 30.0407 20.6343 28.9185 21.7857C28.6518 22.0596 28.3352 22.2768 27.9867 22.425C27.6382 22.5732 27.2646 22.6495 26.8874 22.6495C26.5102 22.6495 26.1366 22.5732 25.7881 22.425C25.4396 22.2768 25.123 22.0596 24.8563 21.7857C24.4558 21.3742 24.1827 20.8503 24.0715 20.2799C23.9603 19.7095 24.016 19.1181 24.2314 18.5801L20.3578 14.6046L20.3572 25.0678C20.6383 25.2098 20.8949 25.398 21.1169 25.6248C22.2385 26.7756 22.2385 28.6406 21.1169 29.7938C19.995 30.9446 18.1766 30.9446 17.0559 29.7938C15.9344 28.6409 15.9344 26.7759 17.0559 25.6248C17.3249 25.3489 17.6445 25.1304 17.9961 24.9819V14.4217C17.6441 14.2739 17.3244 14.0552 17.0559 13.7786C16.2063 12.9071 16.0017 11.6275 16.4376 10.5562L12.1884 6.19518L0.968882 17.7093C0.516242 18.174 0.261963 18.8042 0.261963 19.4613C0.261963 20.1184 0.516242 20.7485 0.968882 21.2132L17.3317 38.0058C18.274 38.9729 19.8017 38.9729 20.7455 38.0058L37.0315 21.2912C37.484 20.8264 37.7382 20.1962 37.7381 19.5391C37.7381 18.882 37.4838 18.2518 37.0312 17.787Z" fill="#F34F29"/>
</g>
<defs>
<clipPath id="clip0_285_10">
<rect width="38" height="39" fill="white"/>
</clipPath>
</defs>
</svg>
