<svg width="43" height="43" viewBox="0 0 43 43" fill="none" xmlns="http://www.w3.org/2000/svg">
<path fill-rule="evenodd" clip-rule="evenodd" d="M21.5 1.71429C10.2975 1.71429 1.21338 10.7964 1.21338 22.0009C1.21338 30.9644 7.02611 38.5683 15.0866 41.2511C16.1001 41.4392 16.4723 40.811 16.4723 40.2752C16.4723 39.7915 16.4535 38.1934 16.4448 36.4983C10.801 37.7255 9.61014 34.1047 9.61014 34.1047C8.68732 31.7599 7.35768 31.1364 7.35768 31.1364C5.51674 29.8773 7.49642 29.9035 7.49642 29.9035C9.53321 30.0463 10.6062 31.994 10.6062 31.994C12.4156 35.0947 15.352 34.1984 16.5096 33.6804C16.6917 32.3693 17.2174 31.474 17.7976 30.9674C13.2917 30.4551 8.55462 28.7153 8.55462 20.942C8.55462 18.7272 9.34743 16.9175 10.6452 15.4965C10.4342 14.9858 9.73981 12.9225 10.8413 10.1282C10.8413 10.1282 12.5446 9.58296 16.4213 12.2076C18.0398 11.7578 19.7756 11.5317 21.5 11.524C23.2233 11.5317 24.9601 11.7571 26.5817 12.207C30.4537 9.58229 32.1549 10.1275 32.1549 10.1275C33.2591 12.9215 32.5647 14.9852 32.3541 15.4958C33.6549 16.9168 34.442 18.7265 34.442 20.9413C34.442 28.7331 29.6962 30.4484 25.1788 30.9509C25.9068 31.5805 26.5552 32.8154 26.5552 34.7077C26.5552 37.4221 26.5316 39.6067 26.5316 40.2749C26.5316 40.8147 26.8971 41.4473 27.9251 41.2481C35.9809 38.5626 41.7869 30.961 41.7869 22.0009C41.7866 10.797 32.7035 1.71429 21.5 1.71429Z" fill="black"/>
<path d="M8.89718 30.8411C8.8525 30.9419 8.69394 30.9721 8.54949 30.9032C8.40167 30.8374 8.31937 30.7 8.36707 30.5989C8.41074 30.4947 8.56964 30.4662 8.71645 30.5357C8.86426 30.6019 8.94824 30.7406 8.89684 30.8414L8.89718 30.8411ZM9.71888 31.7579C9.62247 31.8476 9.43334 31.8059 9.30501 31.6638C9.17198 31.5227 9.14712 31.3336 9.24555 31.2425C9.34566 31.1532 9.52908 31.1955 9.66211 31.3366C9.79447 31.4797 9.82067 31.6672 9.71922 31.7582L9.71888 31.7579ZM10.5191 32.9259C10.3948 33.0126 10.1912 32.9316 10.0656 32.7512C9.94127 32.5705 9.94127 32.3538 10.0689 32.2675C10.1942 32.1808 10.3948 32.2591 10.5224 32.4378C10.6461 32.6209 10.6461 32.8379 10.5191 32.9259ZM11.6146 34.055C11.5037 34.1776 11.2665 34.1447 11.0932 33.9777C10.9162 33.8141 10.8668 33.5813 10.978 33.459C11.0909 33.3361 11.329 33.3704 11.5034 33.5363C11.6804 33.6996 11.7338 33.9327 11.6153 34.0547L11.6146 34.055ZM13.1263 34.7104C13.0769 34.8693 12.8491 34.9415 12.619 34.8737C12.3896 34.8041 12.2394 34.6184 12.2865 34.4578C12.3335 34.2975 12.5629 34.2226 12.7944 34.2949C13.0238 34.3641 13.174 34.5488 13.1263 34.7104ZM14.7868 34.8317C14.7925 34.999 14.5977 35.1374 14.3568 35.1408C14.114 35.1465 13.9174 35.0107 13.9151 34.8461C13.9151 34.6772 14.1059 34.5404 14.3484 34.5357C14.5893 34.5314 14.7872 34.6657 14.7872 34.8314L14.7868 34.8317ZM16.3315 34.569C16.3604 34.7319 16.1927 34.8995 15.9532 34.9442C15.7181 34.9879 15.4997 34.8864 15.4695 34.7249C15.4406 34.5576 15.6112 34.3899 15.8464 34.3466C16.0862 34.3053 16.3012 34.4034 16.3315 34.569Z" fill="black"/>
</svg>
