<svg width="36" height="33" viewBox="0 0 36 33" fill="none" xmlns="http://www.w3.org/2000/svg">
<g clip-path="url(#clip0_251_30)">
<path d="M5.35419 29.3587L2.54028 0.428223H33.4598L30.6428 29.3543L17.9812 32.5718L5.35419 29.3587Z" fill="#E44D26"/>
<path d="M18 30.1125L28.2313 27.5122L30.6385 2.79364H18V30.1125Z" fill="#F16529"/>
<path d="M17.9999 13.5235H12.8778L12.524 9.88993H17.9999V6.34192H8.2937L8.38651 7.29376L9.3377 17.0718H17.9999V13.5235ZM17.9999 22.7385L17.9828 22.7429L13.672 21.6756L13.3967 18.8461H9.51067L10.0529 24.4172L17.9822 26.4348L17.9999 26.4304V22.7385Z" fill="#EBEBEB"/>
<path d="M17.9866 13.5235V17.0718H22.7529L22.3038 21.6735L17.9866 22.7416V26.4332L25.922 24.4172L25.9803 23.8177L26.8898 14.4764L26.984 13.5235H25.9412H17.9866ZM17.9866 6.34192V9.88993H27.3364L27.4141 9.09278L27.5907 7.29376L27.6832 6.34192H17.9866Z" fill="white"/>
</g>
<defs>
<clipPath id="clip0_251_30">
<rect width="36" height="33" fill="white"/>
</clipPath>
</defs>
</svg>
