<svg width="37" height="37" viewBox="0 0 37 37" fill="none" xmlns="http://www.w3.org/2000/svg">
<g clip-path="url(#clip0_285_7)">
<path d="M0 0H37V37H0V0Z" fill="#F7DF1E"/>
<path d="M9.72866 30.9198L12.56 29.2063C13.1064 30.1748 13.6033 30.9943 14.7952 30.9943C15.9377 30.9943 16.6582 30.5474 16.6582 28.809V16.9866H20.1352V28.8581C20.1352 32.4594 18.0242 34.0987 14.9442 34.0987C12.1627 34.0987 10.5482 32.6581 9.72852 30.9196M22.0238 30.5472L24.8549 28.9081C25.6002 30.1252 26.5689 31.0193 28.2824 31.0193C29.7233 31.0193 30.6419 30.2989 30.6419 29.3054C30.6419 28.1133 29.6981 27.691 28.1086 26.9958L27.2395 26.6229C24.7309 25.5553 23.0669 24.214 23.0669 21.3827C23.0669 18.7747 25.0537 16.7877 28.1584 16.7877C30.3689 16.7877 31.9584 17.5578 33.1008 19.5695L30.3934 21.3082C29.7973 20.2403 29.1518 19.8181 28.1583 19.8181C27.1399 19.8181 26.4941 20.4639 26.4941 21.3082C26.4941 22.3513 27.1399 22.7738 28.63 23.4195L29.4992 23.792C32.4549 25.0588 34.1189 26.3502 34.1189 29.2559C34.1189 32.3855 31.6601 34.0991 28.3569 34.0991C25.1282 34.0991 23.0419 32.5593 22.0236 30.5474" fill="black"/>
</g>
<defs>
<clipPath id="clip0_285_7">
<rect width="37" height="37" fill="white"/>
</clipPath>
</defs>
</svg>
