<svg width="43" height="43" viewBox="0 0 43 43" fill="none" xmlns="http://www.w3.org/2000/svg">
<g clip-path="url(#clip0_273_2)">
<path d="M25.6154 0.0839844L30.0024 0.112875C30.085 0.177039 30.1519 0.219031 30.2228 0.250609C31.0179 0.610063 31.8799 0.867391 32.5965 1.34509C34.6739 2.7258 36.7027 4.18074 38.73 5.63502C39.6723 6.30924 40.6012 7.01135 41.4699 7.77494C42.1156 8.342 42.4055 9.14657 42.4072 10.0046L42.4055 37.0042C42.4045 37.3808 42.34 37.7681 42.2352 38.1302C41.7588 39.781 40.7023 40.9108 39.0398 41.3519C38.163 41.584 37.2368 41.6562 36.3274 41.7312C34.9087 41.8491 33.485 41.9069 32.0637 41.9922L29.3748 42.1602L25.0695 42.4135L22.4226 42.5787L18.0753 42.8307L15.8285 42.9227C15.7563 42.9264 15.6894 43.0275 15.6212 43.084C13.9113 43.084 12.2027 43.084 10.4784 43.0564C10.3957 42.9909 10.3329 42.9382 10.2593 42.9174C9.21726 42.6154 8.34348 42.0396 7.67161 41.2034C6.74106 40.0474 5.85687 38.8559 4.96194 37.6724C3.86208 36.2181 2.73366 34.7853 1.69427 33.2894C1.08335 32.4153 0.756123 31.3744 0.757005 30.3079C0.754077 22.3338 0.755084 14.3596 0.760029 6.3855C0.760029 6.15572 0.800341 5.92359 0.839982 5.69515C1.25722 3.24012 3.07464 1.9303 5.23606 1.68741C6.35809 1.56144 7.48785 1.505 8.61526 1.43042L11.595 1.25842L12.876 1.17444L16.7392 0.841187L18.8808 0.673219L22.428 0.421266L25.4078 0.245234C25.4803 0.240195 25.5472 0.140422 25.6154 0.0839844ZM8.71604 38.3587C8.89476 38.5908 9.09397 38.8112 9.25018 39.0581C10.0074 40.243 11.0928 40.6733 12.4718 40.5816L21.8139 40.0253L32.3274 39.39L37.562 39.0527C39.1133 38.9281 39.8625 38.0896 39.8927 36.5332V36.1973L39.9045 10.712C39.9058 9.94442 39.6408 9.40759 39.0267 8.9786L31.628 3.76485C30.4378 2.8988 29.1743 2.49467 27.7109 2.61023L19.4254 3.22298L10.7619 3.86194L5.32408 4.28589C4.22556 4.38667 3.54461 5.05855 3.34776 6.13623C3.29989 6.41133 3.27662 6.69014 3.27822 6.96936L3.25571 29.2225C3.24798 30.6805 3.69411 31.8932 4.56687 33.0085L8.71604 38.3587Z" fill="white"/>
<path d="M8.69631 38.3362L4.56663 33.0082C3.69387 31.8929 3.24774 30.6805 3.25547 29.2225L3.27798 6.96936C3.27798 6.6912 3.29881 6.40902 3.34752 6.13623C3.54438 5.05888 4.22532 4.38701 5.32384 4.28589L10.7617 3.86194L19.4255 3.22298L27.7107 2.61023C29.1741 2.49467 30.4375 2.8988 31.6277 3.76485C34.0673 5.54028 36.5526 7.25289 39.0264 8.9786C39.6405 9.40759 39.9056 9.94442 39.9042 10.712L39.8925 36.1986V36.5345C39.8622 38.0896 39.1131 38.9281 37.5617 39.0527C35.8192 39.1932 34.0727 39.2839 32.3272 39.39L21.8137 40.0249L12.4716 40.5816C11.0926 40.6733 10.0071 40.243 9.24994 39.0581C9.09373 38.8112 8.89452 38.5908 8.69631 38.3362ZM10.8483 22.8857V34.1356L10.851 36.2339C10.8692 37.1748 11.3301 37.6435 12.2707 37.6972C12.5069 37.7103 12.7457 37.7023 12.9832 37.6878L20.8583 37.2236L35.8965 36.3639C36.8338 36.3115 37.2668 35.9006 37.3545 34.9718C37.3716 34.8048 37.3662 34.6358 37.3662 34.4679L37.3676 12.8076C37.3676 12.6816 37.3716 12.5557 37.3639 12.4297C37.3074 11.5677 36.9372 11.2159 36.0806 11.2616L28.3302 11.7081C24.7 11.9193 21.0698 12.1318 17.4398 12.3457L11.9952 12.6726C11.3012 12.7169 10.9874 13.0162 10.8826 13.6948C10.8578 13.8748 10.8468 14.0564 10.8497 14.238L10.8483 22.8857ZM30.0545 5.17277C29.3971 4.816 28.6833 4.69775 27.9482 4.7384C26.8185 4.80021 25.6887 4.89327 24.5586 4.9749L8.45074 6.1453C7.96397 6.18058 7.47451 6.21585 6.99412 6.30286C6.83287 6.33175 6.62929 6.49434 6.57957 6.64148C6.54262 6.74495 6.70555 6.95391 6.82481 7.06813C7.04552 7.27909 7.29982 7.45613 7.54035 7.64661C8.11111 8.09677 8.71849 8.50728 9.24221 9.0048C10.2356 9.94812 11.3915 10.1661 12.7158 10.0704L23.1416 9.41666L34.3653 8.74345C34.4678 8.73841 34.5702 8.70683 34.7956 8.66484C34.5897 8.45084 34.4701 8.28691 34.3142 8.17134C33.7644 7.76525 33.2093 7.36635 32.649 6.97473C31.7882 6.36826 30.9234 5.76759 30.0545 5.17277Z" fill="black"/>
<path d="M10.8486 22.8438L10.85 14.2381C10.85 14.0567 10.8554 13.8732 10.8829 13.6949C10.9877 13.0163 11.3015 12.7173 11.9955 12.6726L17.4401 12.3457L28.3305 11.7081L36.0806 11.2617C36.9376 11.216 37.3078 11.5687 37.3639 12.4297C37.3719 12.5557 37.3679 12.6817 37.3679 12.8076L37.3665 34.4679L37.3548 34.9718C37.2671 35.9007 36.8341 36.3115 35.8968 36.3639L20.8586 37.2236L12.9835 37.6878L12.2713 37.6973C11.3304 37.6435 10.8695 37.1749 10.8513 36.2353L10.8486 34.1356V22.8438ZM26.2232 22.866L21.9003 16.2799C21.7495 16.0501 21.6013 15.9742 21.3232 16.0044L19.4806 16.1287L16.091 16.377C15.2578 16.4532 14.7539 17.2366 14.9847 18.0489L16.78 18.2025V32.7462L15.5571 33.0912C15.0149 33.2511 14.7828 33.708 14.9652 34.2919L19.0999 34.0544L20.7286 33.9206C21.4307 33.8051 21.8086 33.3747 21.903 32.6726L19.6421 32.157V21.2178L19.8101 21.453L25.0064 29.5666C25.7702 30.7514 26.5546 31.9229 27.3593 33.0805C27.9327 33.9035 28.778 34.1555 29.728 33.9505C30.3226 33.8236 30.8934 33.582 31.4759 33.3942C31.7792 33.2958 31.8827 33.1147 31.8814 32.7748L31.8713 17.8255C31.8713 16.9518 31.8713 16.9518 32.7356 16.7774C33.6098 16.6014 33.8288 16.2523 33.6292 15.3181L28.4054 15.6356C27.837 15.6762 27.4067 16.1512 27.3203 16.7038C27.278 16.9702 27.3331 17.1171 27.6519 17.1355L29.2335 17.3102V27.4485C28.2317 25.9203 27.2283 24.3933 26.2232 22.8673V22.866ZM30.0834 5.18724C30.941 5.77942 31.796 6.37516 32.6486 6.97443C33.209 7.36615 33.7642 7.76516 34.3142 8.17137C34.4701 8.28693 34.5897 8.45087 34.7956 8.66486L34.3653 8.74347L23.1416 9.41669L12.7158 10.0704C11.3915 10.1662 10.2356 9.94815 9.24219 9.00483C8.71847 8.50765 8.11109 8.09679 7.54 7.64664C7.2998 7.45616 7.0455 7.27912 6.82479 7.06782C6.70553 6.9536 6.5426 6.74532 6.57955 6.64118C6.62927 6.49437 6.83419 6.33178 6.9941 6.30289C7.47449 6.21622 7.96395 6.18061 8.45073 6.14533L24.5589 4.97493L27.9485 4.73843C28.6832 4.69811 29.3971 4.81569 30.0834 5.18724Z" fill="white"/>
<path d="M26.2412 22.8908L29.2334 27.4484V17.3098L27.6522 17.1351C27.333 17.117 27.278 16.9702 27.3199 16.7038C27.4066 16.1512 27.8373 15.6762 28.405 15.6355L33.6292 15.3181C33.8287 16.252 33.6097 16.6013 32.7356 16.777C31.8709 16.9504 31.8709 16.9504 31.8709 17.8255L31.8813 32.7747C31.8826 33.1147 31.7792 33.2957 31.4758 33.3942L29.7279 33.9505C28.7779 34.1541 27.9327 33.9035 27.3596 33.0804C26.5553 31.9226 25.7708 30.7512 25.0067 29.5665L19.8097 21.4526C19.7731 21.3948 19.7311 21.3411 19.6418 21.2178V32.1569L21.903 32.6726C21.8086 33.3747 21.4306 33.8047 20.7285 33.9206C20.193 34.0083 19.6434 34.0214 19.0999 34.0543L14.9652 34.2918C14.7828 33.7079 15.0149 33.2511 15.5571 33.0912L16.7799 32.7462V18.2024L14.9847 18.0489C14.7539 17.2366 15.2578 16.4532 16.0909 16.3769C17.2183 16.2718 18.3507 16.2076 19.4805 16.129C20.0946 16.087 20.7114 16.0712 21.3231 16.0044C21.6013 15.9741 21.7498 16.0501 21.9003 16.2798L26.2412 22.8908Z" fill="black"/>
</g>
<defs>
<clipPath id="clip0_273_2">
<rect width="43" height="43" fill="white"/>
</clipPath>
</defs>
</svg>
