<svg width="38" height="38" viewBox="0 0 38 38" fill="none" xmlns="http://www.w3.org/2000/svg">
<g clip-path="url(#clip0_252_62)">
<path d="M6.72667 0.474792H31.2587C34.9783 0.474792 37.9854 3.48187 37.9854 7.20146V30.7838C37.9854 34.5034 34.9783 37.5105 31.2587 37.5105H6.72667C3.00707 37.5105 0 34.5034 0 30.7838V7.20146C0 3.48187 3.00707 0.474792 6.72667 0.474792Z" fill="#001E36"/>
<path d="M13.6112 9.89197C13.1364 9.89197 12.6616 9.89197 12.171 9.90799C11.6802 9.92372 11.2211 9.92372 10.7938 9.93975C10.3664 9.95547 9.97084 9.95547 9.59098 9.9712C9.22686 9.98693 8.97372 9.98693 8.70456 9.98693C8.59387 9.98693 8.54639 10.0501 8.54639 10.1611V26.4473C8.54639 26.5898 8.6096 26.6533 8.73631 26.6533H11.8069C11.9176 26.6373 11.9968 26.5423 11.9808 26.4316V21.3511C12.2814 21.3511 12.5031 21.3511 12.6616 21.3668C12.8197 21.3825 13.0729 21.3825 13.4527 21.3825C14.7508 21.3825 15.9378 21.2401 17.0139 20.8445C18.0427 20.4647 18.9291 19.7999 19.5621 18.9135C20.1952 18.0272 20.5118 16.9034 20.5118 15.5423C20.5118 14.8301 20.3854 14.1496 20.1479 13.4848C19.8964 12.8076 19.5023 12.1923 18.9924 11.6805C18.3905 11.0958 17.666 10.6524 16.8714 10.3825C15.985 10.0501 14.9089 9.89197 13.6112 9.89197ZM13.9643 13.0094C14.5282 13.0201 15.0772 13.1186 15.5894 13.3264C16.0485 13.5006 16.4283 13.8172 16.6975 14.2285C16.9499 14.6542 17.0762 15.1429 17.0616 15.6375C17.0616 16.3337 16.9032 16.8721 16.5708 17.2677C16.2224 17.6632 15.7793 17.9642 15.2731 18.1066C14.6873 18.2965 14.07 18.3912 13.4527 18.3912H12.6138C12.4239 18.3912 12.2185 18.3755 11.9968 18.3597V13.0418C12.1075 13.0258 12.3292 13.01 12.6458 13.0261C12.9465 13.01 13.3103 13.01 13.7219 13.01C13.803 13.0081 13.8838 13.0079 13.9643 13.0094ZM27.2384 13.8175C26.1146 13.8175 25.1807 13.9914 24.437 14.3713C23.7566 14.6879 23.1707 15.1942 22.7752 15.8272C22.4271 16.413 22.2368 17.0617 22.2368 17.7425C22.2233 18.3024 22.3484 18.857 22.601 19.3568C22.897 19.8891 23.308 20.3487 23.804 20.7021C24.5003 21.1783 25.2558 21.5614 26.0514 21.8416C26.8268 22.1422 27.3491 22.3797 27.6026 22.5853C27.8557 22.7913 27.9824 22.9969 27.9824 23.2186C27.9824 23.5035 27.8082 23.7726 27.5551 23.8833C27.2702 24.0258 26.8429 24.105 26.2413 24.105C25.6083 24.105 24.9751 24.0258 24.3735 23.8676C23.6828 23.7134 23.0206 23.4517 22.411 23.0922C22.3636 23.0604 22.3161 23.0447 22.2686 23.0764C22.2211 23.1079 22.2054 23.1711 22.2054 23.2186V25.9725C22.1897 26.0992 22.2686 26.2099 22.3796 26.2731C22.8928 26.5129 23.4357 26.6833 23.994 26.7797C24.7062 26.9222 25.4181 26.9854 26.1461 26.9854C27.2856 26.9854 28.2356 26.8115 29.011 26.4791C29.7232 26.1942 30.3405 25.7037 30.7835 25.0704C31.1985 24.4478 31.4138 23.7135 31.4008 22.9655C31.4164 22.4003 31.2914 21.8402 31.037 21.3354C30.7361 20.797 30.3087 20.354 29.7864 20.0216C29.0223 19.5418 28.2042 19.1539 27.3491 18.866C26.9673 18.708 26.5923 18.5337 26.2253 18.3437C26.0196 18.233 25.8297 18.0906 25.6873 17.9164C25.5923 17.7897 25.5291 17.6475 25.5291 17.5051C25.5291 17.3626 25.5766 17.2044 25.6555 17.0777C25.7665 16.9196 25.9404 16.8086 26.1461 16.7611C26.447 16.6821 26.7794 16.6344 27.0957 16.6501C27.6972 16.6501 28.2827 16.7293 28.8685 16.856C29.4069 16.9667 29.9131 17.1409 30.388 17.3944C30.4512 17.4258 30.5304 17.4258 30.6729 17.3944C30.6976 17.376 30.7176 17.3521 30.7314 17.3246C30.7452 17.2971 30.7523 17.2667 30.7521 17.2359V14.6562C30.7521 14.5927 30.7361 14.5294 30.7203 14.4662C30.6886 14.403 30.6254 14.3395 30.5622 14.3238C30.1256 14.1454 29.6682 14.023 29.2009 13.9597C28.551 13.865 27.8952 13.8177 27.2384 13.8175Z" fill="#31A8FF"/>
</g>
<defs>
<clipPath id="clip0_252_62">
<rect width="37.9854" height="37.9854" fill="white"/>
</clipPath>
</defs>
</svg>
