<svg width="67" height="54" viewBox="0 0 67 54" fill="none" xmlns="http://www.w3.org/2000/svg">
<g clip-path="url(#clip0_247_37)">
<path d="M29.197 53.9474L22.8111 52.0806C22.1411 51.8908 21.7642 51.1841 21.9527 50.5091L36.2425 0.917716C36.4309 0.242716 37.1323 -0.136971 37.8023 0.0528725L44.1883 1.91967C44.8583 2.10951 45.2351 2.81615 45.0467 3.49115L30.7569 53.0826C30.558 53.7576 29.867 54.1478 29.197 53.9474ZM17.2627 42.1138L21.8166 37.2201C22.2981 36.7033 22.2667 35.8806 21.7328 35.406L12.2481 27.0001L21.7328 18.5943C22.2667 18.1197 22.3086 17.297 21.8166 16.7802L17.2627 11.8865C16.7916 11.3802 15.9959 11.3486 15.483 11.8337L0.3975 26.072C-0.136406 26.5677 -0.136406 27.422 0.3975 27.9177L15.483 42.1665C15.9959 42.6517 16.7916 42.6306 17.2627 42.1138ZM51.5164 42.1771L66.6019 27.9283C67.1358 27.4326 67.1358 26.5783 66.6019 26.0826L51.5164 11.8232C51.0139 11.3486 50.2183 11.3697 49.7367 11.8759L45.1828 16.7697C44.7012 17.2865 44.7327 18.1091 45.2666 18.5837L54.7512 27.0001L45.2666 35.406C44.7327 35.8806 44.6908 36.7033 45.1828 37.2201L49.7367 42.1138C50.2078 42.6306 51.0034 42.6517 51.5164 42.1771Z" fill="#0C4CF3"/>
<rect width="10.0892" height="54.2228" rx="2" transform="matrix(0.957869 0.287204 -0.283307 0.959029 36.2847 -0.437622)" fill="#0C4CF3"/>
</g>
<defs>
<clipPath id="clip0_247_37">
<rect width="67" height="54" fill="white"/>
</clipPath>
</defs>
</svg>
